<svg width="52" height="53" viewBox="0 0 52 53" fill="none" xmlns="http://www.w3.org/2000/svg">
<path d="M21.7717 30.7966V48.3371H4.35435V30.7966H21.7717ZM24.6746 27.8732H1.45145V51.2605H24.6746V27.8732Z" fill="black"/>
<path d="M38.8481 30.7966C43.6494 30.7966 47.5567 34.7315 47.5567 39.5669C47.5567 44.4022 43.6494 48.3371 38.8481 48.3371C34.0467 48.3371 30.1394 44.4022 30.1394 39.5669C30.1394 34.7315 34.0467 30.7966 38.8481 30.7966ZM38.8481 27.8732C32.4355 27.8732 27.2365 33.1091 27.2365 39.5669C27.2365 46.0247 32.4355 51.2605 38.8481 51.2605C45.2606 51.2605 50.4597 46.0247 50.4597 39.5669C50.4597 33.1091 45.2606 27.8732 38.8481 27.8732Z" fill="black"/>
<path d="M13.063 4.90253L21.7717 9.28764V17.3679L13.063 21.7531L4.35435 17.3679V9.28764L13.063 4.90253ZM13.063 1.63416L1.45145 7.48097V19.1746L13.063 25.0214L24.6746 19.1746V7.48097L13.063 1.63416Z" fill="black"/>
<path d="M38.8481 25.0112V1.63562" stroke="black" stroke-width="3" stroke-miterlimit="10"/>
<path d="M27.2365 13.3234H50.5148" stroke="black" stroke-width="3" stroke-miterlimit="10"/>
</svg>
