<svg width="53" height="52" viewBox="0 0 53 52" fill="none" xmlns="http://www.w3.org/2000/svg">
<g clip-path="url(#clip0_8_30)">
<path d="M24.9555 3.63955C37.0843 3.63955 46.9518 13.5071 46.9518 25.6358C46.9518 37.7645 37.0843 47.632 24.9555 47.632C12.8268 47.632 2.95931 37.7645 2.95931 25.6358C2.95931 13.5071 12.8268 3.63955 24.9555 3.63955ZM24.9555 1C11.3531 1 0.319763 12.0333 0.319763 25.6358C0.319763 39.2383 11.3531 50.2716 24.9555 50.2716C38.558 50.2716 49.5913 39.2383 49.5913 25.6358C49.5913 12.0333 38.558 1 24.9555 1Z" fill="black"/>
<path d="M24.9556 2.23535V48.9122" stroke="black" stroke-width="3" stroke-miterlimit="10"/>
<path d="M24.9556 48.9122C14.781 45.882 11.5344 33.1461 11.5344 25.5742C11.5344 19.5842 14.8092 5.83035 24.9837 2.80103" stroke="black" stroke-width="3" stroke-miterlimit="10"/>
<path d="M25.0119 2.80017C35.1864 5.83037 38.4331 18.5662 38.4331 26.1382C38.4331 32.1282 35.1583 45.882 24.9837 48.9113" stroke="black" stroke-width="3" stroke-miterlimit="10"/>
<path d="M6.5896 40.273C11.6901 35.586 19.5225 33.7014 24.8526 33.5157C29.2 33.3635 37.6984 34.795 43.3224 39.4433" stroke="black" stroke-width="3" stroke-miterlimit="10"/>
<path d="M43.326 10.9511C38.1445 15.5483 30.2795 17.2957 24.9485 17.389C20.5994 17.4646 12.1274 15.8853 6.58521 11.1403" stroke="black" stroke-width="3" stroke-miterlimit="10"/>
</g>
<defs>
<clipPath id="clip0_8_30">
<rect width="51.9111" height="51.9111" fill="white" transform="translate(0.319763)"/>
</clipPath>
</defs>
</svg>
