<svg width="52" height="43" viewBox="0 0 52 43" fill="none" xmlns="http://www.w3.org/2000/svg">
<path d="M10.1111 20.3358V3.60431C10.1111 2.54117 10.9507 1.68024 11.9874 1.68024H40.6792C41.716 1.68024 42.5555 2.54117 42.5555 3.60431V20.3358" stroke="black" stroke-width="3" stroke-linecap="round" stroke-linejoin="bevel"/>
<path d="M2 17.0415V41.4247H49.8556V17.0415L25.9278 29.2331L2 17.0415ZM2 17.0415L9.45227 9.79132M42.3609 9.79132L49.8132 17.0415" stroke="black" stroke-width="3" stroke-linecap="round" stroke-linejoin="round"/>
<path d="M22.0612 18.5781L14.9778 15.6757V14.1994L22.0612 11.2896V13.2033L17.6863 14.9376L22.0612 16.66V18.5781ZM28.4117 8.98022L24.8843 21.1469H22.6313L26.1813 8.98022H28.4117ZM28.9833 11.2896L36.0667 14.1846V15.6683L28.9833 18.5781V16.6644L33.3536 14.9316L28.9833 13.2077V11.2896Z" fill="black"/>
</svg>
