<svg width="53" height="44" viewBox="0 0 53 44" fill="none" xmlns="http://www.w3.org/2000/svg">
<path d="M0.908997 8.78281H51.8132" stroke="black" stroke-width="2" stroke-miterlimit="10"/>
<path fill-rule="evenodd" clip-rule="evenodd" d="M45.9492 5.51971C45.9492 6.13474 45.4529 6.63296 44.8402 6.63296C44.2276 6.63296 43.7313 6.13474 43.7313 5.51971C43.7313 4.90469 44.2276 4.40646 44.8402 4.40646C45.4529 4.40646 45.9492 4.90469 45.9492 5.51971Z" fill="black"/>
<path fill-rule="evenodd" clip-rule="evenodd" d="M48.5462 5.54892C48.5462 6.16394 48.0499 6.66217 47.4372 6.66217C46.8246 6.66217 46.3282 6.16394 46.3282 5.54892C46.3282 4.93389 46.8246 4.43567 47.4372 4.43567C48.0499 4.43567 48.5462 4.93389 48.5462 5.54892Z" fill="black"/>
<path d="M38.2409 5.10543C38.4609 5.10543 38.639 5.28519 38.639 5.5051C38.639 5.72501 38.4599 5.90478 38.2409 5.90478H16.1157C15.8957 5.90478 15.7176 5.72501 15.7176 5.5051C15.7176 5.28519 15.8967 5.10543 16.1157 5.10543H38.2409ZM38.2409 4.42105H16.1157C15.5194 4.42105 15.0358 4.9065 15.0358 5.5051C15.0358 6.1037 15.5194 6.58915 16.1157 6.58915H38.2409C38.8372 6.58915 39.3208 6.1037 39.3208 5.5051C39.3208 4.9065 38.8372 4.42105 38.2409 4.42105Z" fill="black"/>
<path fill-rule="evenodd" clip-rule="evenodd" d="M43.4376 5.54892C43.4376 6.16394 42.9413 6.66217 42.3287 6.66217C41.716 6.66217 41.2197 6.16394 41.2197 5.54892C41.2197 4.93389 41.716 4.43567 42.3287 4.43567C42.9413 4.43567 43.4376 4.93389 43.4376 5.54892Z" fill="black"/>
<path fill-rule="evenodd" clip-rule="evenodd" d="M4.96497 5.49051C4.96497 4.89191 5.44856 4.40646 6.04486 4.40646H12.9751C13.5714 4.40646 14.055 4.89191 14.055 5.49051C14.055 6.08911 13.5714 6.57456 12.9751 6.57456H6.04486C5.44856 6.57456 4.96497 6.08911 4.96497 5.49051Z" fill="black"/>
<path d="M47.2682 2.73751C48.7717 2.73751 49.9952 3.96573 49.9952 5.47501V38.325C49.9952 39.8343 48.7717 41.0625 47.2682 41.0625H5.45402C3.95052 41.0625 2.727 39.8343 2.727 38.325V5.47501C2.727 3.96573 3.95052 2.73751 5.45402 2.73751H47.2682ZM47.2682 0.912506H5.45402C2.94426 0.912506 0.908997 2.95559 0.908997 5.47501V38.325C0.908997 40.8444 2.94426 42.8875 5.45402 42.8875H47.2682C49.778 42.8875 51.8132 40.8444 51.8132 38.325V5.47501C51.8132 2.95559 49.778 0.912506 47.2682 0.912506Z" fill="black"/>
<path d="M22.9833 29.7274L14.0623 25.8328V23.6766L22.9833 19.7994V22.3389L16.7602 24.7278L22.9833 27.2052V29.7274ZM23.8086 31.4383L27.031 17.9288H28.9045L25.6466 31.4383H23.8095H23.8086ZM29.7299 29.7365V27.2144L35.9611 24.7552L29.7299 22.3215V19.8176L38.6599 23.6949V25.8338L29.7299 29.7365Z" fill="black"/>
</svg>
